<svg width="188" height="130" viewBox="0 0 188 130" fill="none" xmlns="http://www.w3.org/2000/svg">
<path d="M94.2781 66.571C94.0091 66.9535 93.7823 67.2683 93.564 67.5864C90.0821 72.711 86.6014 77.8351 83.1218 82.9585C79.8848 87.7243 76.6444 92.4873 73.4007 97.2475C73.3468 97.3222 73.2779 97.3848 73.1983 97.4312C73.1187 97.4775 73.0302 97.5066 72.9386 97.5166C68.359 97.4771 63.7805 97.4274 59.2031 97.3676C59.1523 97.3676 59.0999 97.3524 59 97.3372C59.037 97.2415 59.0799 97.1482 59.1286 97.0579C62.3228 92.106 65.5169 87.1551 68.711 82.2054C71.5441 77.8187 74.3789 73.4331 77.2153 69.0487C80.3587 64.1768 83.5004 59.3015 86.6403 54.4229C87.104 53.7036 87.5864 52.9979 88.0264 52.2651C88.1392 52.0689 88.1731 51.8372 88.1212 51.6169C87.275 48.9192 86.4119 46.2283 85.5504 43.5374C85.1815 42.3848 84.7956 41.2391 84.4504 40.0798C84.3387 39.7075 84.1542 39.5941 83.7734 39.5958C80.8963 39.6076 78.0362 39.6042 75.1675 39.6042C74.6226 39.6042 74.6209 39.6042 74.6209 39.066C74.6209 35.5391 74.6209 32.0121 74.6107 28.4851C74.6107 28.0925 74.7394 28.0045 75.1083 28.0045C80.8839 28.0147 86.6606 28.0147 92.4385 28.0045C92.5727 27.9873 92.7085 28.0196 92.8206 28.0953C92.9328 28.171 93.0135 28.2849 93.0478 28.4158C96.0941 36.0778 99.1404 43.7371 102.187 51.3935C105.741 60.3226 109.295 69.2529 112.849 78.1843C113.952 80.9564 115.064 83.7269 116.156 86.5058C116.286 86.8443 116.422 86.9086 116.763 86.8037C119.791 85.8678 122.826 84.9572 125.852 84.0197C126.232 83.9012 126.371 83.9807 126.49 84.3581C127.522 87.6025 128.575 90.84 129.621 94.081C129.656 94.1927 129.683 94.3061 129.726 94.4618C129.509 94.5413 129.306 94.631 129.098 94.6886C122.215 96.8695 115.337 99.0516 108.462 101.235C108.134 101.338 108.036 101.226 107.926 100.95C105.826 95.6295 103.721 90.3109 101.611 84.9945C99.5477 79.7886 97.483 74.5828 95.4171 69.377C95.1074 68.5951 94.8028 67.8098 94.4931 67.0279C94.444 66.8942 94.3763 66.7775 94.2781 66.571V66.571Z" fill="#FA7E14"/>
</svg>
