<svg width="188" height="130" viewBox="0 0 188 130" fill="none" xmlns="http://www.w3.org/2000/svg">
<path d="M139.387 67.9537C140.227 67.1133 140.087 65.5259 139.387 64.6388L134.951 60.2035L115.109 40.9682C114.269 40.1278 112.961 40.1278 111.934 40.9682C111.094 41.8086 110.767 43.3959 111.934 44.283L132.757 64.6855C133.597 65.5259 133.597 67.1133 132.757 68.0003L111.514 89.1032C110.674 89.9436 110.674 91.5309 111.514 92.418C112.354 93.2584 113.942 93.1183 114.689 92.418L134.391 72.9026C134.391 72.9026 134.391 72.9026 134.531 72.7625L139.387 67.9537Z" fill="#3999C6"/>
<path d="M48.5789 67.9537C47.7386 67.1133 47.8786 65.5259 48.5789 64.6388L53.0143 60.2035L72.8566 40.9682C73.6969 40.1278 75.0042 40.1278 76.0313 40.9682C76.8717 41.8086 77.1985 43.3959 76.0313 44.283L55.6288 64.6855C54.7884 65.5259 54.7884 67.1133 55.6288 68.0003L76.4515 89.1032C77.2919 89.9436 77.2919 91.5309 76.4515 92.418C75.6111 93.2584 74.0237 93.1183 73.2767 92.418L53.1543 73.1827C53.1543 73.1827 53.1543 73.1827 53.0143 73.0426L48.5789 67.9537Z" fill="#3999C6"/>
<path d="M77.2915 109.785L116.976 53.6196H97.694L116.369 25H88.3565L73.2764 67.5325L91.6713 67.6725L77.2915 109.785Z" fill="#FCD116"/>
<path opacity="0.3" d="M104.602 60.4826L77.29 109.785L116.975 53.6196H97.6926L116.368 25H101.708L86.2074 60.3426L104.602 60.4826Z" fill="#FF8C00"/>
</svg>
