<?xml version="1.0" encoding="UTF-8"?>
<svg xmlns="http://www.w3.org/2000/svg" xmlns:xlink="http://www.w3.org/1999/xlink" width="80pt" height="80pt" viewBox="0 0 80 80" version="1.1">
<g id="surface1">
<path style=" stroke:none;fill-rule:nonzero;fill:rgb(89.803922%,37.647059%,41.176471%);fill-opacity:1;" d="M 80 0 L 22.398438 0 L 22.398438 58 L 80 58 Z M 80 0 "/>
<path style=" stroke:none;fill-rule:nonzero;fill:rgb(17.254902%,25.490196%,32.941176%);fill-opacity:1;" d="M 46.199219 47.898438 L 56.199219 47.898438 L 56.199219 42.800781 C 56.601562 42.699219 57 42.5 57.398438 42.300781 L 61 45.898438 L 68.101562 38.800781 L 64.5 35.199219 C 64.699219 34.800781 64.800781 34.398438 65 34 L 70.101562 34 L 70.101562 24 L 65 24 C 64.898438 23.601562 64.699219 23.199219 64.5 22.800781 L 68.101562 19.199219 L 61 12.101562 L 57.398438 15.699219 C 57 15.5 56.601562 15.398438 56.199219 15.199219 L 56.199219 10.101562 L 46.199219 10.101562 L 46.199219 15.199219 C 45.800781 15.300781 45.398438 15.5 45 15.699219 L 41.398438 12.101562 L 34.300781 19.199219 L 37.898438 22.800781 C 37.699219 23.199219 37.601562 23.601562 37.398438 24 L 32.300781 24 L 32.300781 34 L 37.398438 34 C 37.5 34.398438 37.699219 34.800781 37.898438 35.199219 L 34.300781 38.800781 L 41.398438 45.898438 L 45 42.300781 C 45.398438 42.5 45.800781 42.601562 46.199219 42.800781 Z M 46.199219 47.898438 "/>
<path style=" stroke:none;fill-rule:nonzero;fill:rgb(89.803922%,37.647059%,41.176471%);fill-opacity:1;" d="M 51.199219 35.398438 C 54.699219 35.398438 57.601562 32.5 57.601562 29 C 57.601562 25.5 54.800781 22.601562 51.199219 22.601562 C 47.601562 22.601562 44.800781 25.5 44.800781 29 C 44.800781 32.5 47.699219 35.398438 51.199219 35.398438 Z M 51.199219 35.398438 "/>
<path style=" stroke:none;fill-rule:nonzero;fill:rgb(50.588235%,78.039216%,97.647059%);fill-opacity:1;" d="M 9.601562 13.5 L 0.300781 13.5 C 0.101562 13.5 -0.101562 13.300781 -0.101562 13.101562 L -0.101562 3 C -0.101562 2.800781 0.101562 2.601562 0.300781 2.601562 L 9.601562 2.601562 C 9.800781 2.601562 10 2.398438 10 2.199219 L 10 0.398438 C 10 0.199219 10.199219 0 10.398438 0 C 10.5 0 10.601562 0 10.699219 0.101562 L 18.300781 7.800781 C 18.398438 7.898438 18.398438 8.199219 18.300781 8.300781 L 10.699219 16 C 10.601562 16.101562 10.300781 16.101562 10.199219 16 C 10.101562 15.898438 10.101562 15.800781 10.101562 15.699219 L 10.101562 13.898438 C 10 13.699219 9.800781 13.5 9.601562 13.5 Z M 9.601562 13.5 "/>
<path style=" stroke:none;fill-rule:nonzero;fill:rgb(99.607843%,85.098039%,33.333333%);fill-opacity:1;" d="M 9.601562 34.5 L 0.300781 34.5 C 0.101562 34.5 -0.101562 34.300781 -0.101562 34.101562 L -0.101562 23.898438 C -0.101562 23.699219 0.101562 23.5 0.300781 23.5 L 9.601562 23.5 C 9.800781 23.5 10 23.300781 10 23.101562 L 10 21.300781 C 10 21.101562 10.199219 20.898438 10.398438 20.898438 C 10.5 20.898438 10.601562 20.898438 10.699219 21 L 18.300781 28.699219 C 18.398438 28.800781 18.398438 29.101562 18.300781 29.199219 L 10.699219 36.898438 C 10.601562 37 10.300781 37 10.199219 36.898438 C 10.101562 36.800781 10.101562 36.699219 10.101562 36.601562 L 10.101562 34.800781 C 10 34.601562 9.800781 34.5 9.601562 34.5 Z M 9.601562 34.5 "/>
<path style=" stroke:none;fill-rule:nonzero;fill:rgb(20.392157%,27.45098%,32.54902%);fill-opacity:1;" d="M 9.601562 55.398438 L 0.300781 55.398438 C 0.101562 55.398438 -0.101562 55.199219 -0.101562 55 L -0.101562 44.800781 C -0.101562 44.601562 0.101562 44.398438 0.300781 44.398438 L 9.601562 44.398438 C 9.800781 44.398438 10 44.199219 10 44 L 10 42.199219 C 10 42 10.199219 41.800781 10.398438 41.800781 C 10.5 41.800781 10.601562 41.800781 10.699219 41.898438 L 18.300781 49.601562 C 18.398438 49.699219 18.398438 50 18.300781 50.101562 L 10.699219 57.800781 C 10.601562 57.898438 10.300781 57.898438 10.199219 57.800781 C 10.101562 57.699219 10.101562 57.601562 10.101562 57.5 L 10.101562 55.699219 C 10 55.601562 9.800781 55.398438 9.601562 55.398438 Z M 9.601562 55.398438 "/>
</g>
</svg>
