<svg xmlns="http://www.w3.org/2000/svg" width="80pt" height="80pt" viewBox="0 0 80 80"><path style="stroke:none;fill-rule:nonzero;fill:#e56069;fill-opacity:1" d="M80 0H22.398v58H80Zm0 0"/><path style="stroke:none;fill-rule:nonzero;fill:#2c4154;fill-opacity:1" d="M46.2 47.898h10v-5.097c.402-.102.8-.301 1.198-.5L61 45.898l7.102-7.097-3.602-3.602c.2-.398.3-.8.5-1.199h5.102V24H65c-.102-.398-.3-.8-.5-1.2l3.602-3.6L61 12.101l-3.602 3.597c-.398-.199-.796-.3-1.199-.5v-5.097h-10v5.097c-.398.102-.8.301-1.199.5l-3.602-3.597-7.097 7.097 3.597 3.602c-.199.398-.296.8-.5 1.199h-5.097v10h5.097c.102.398.301.8.5 1.2l-3.597 3.6 7.097 7.098L45 42.301c.398.199.8.3 1.2.5Zm0 0"/><path style="stroke:none;fill-rule:nonzero;fill:#e56069;fill-opacity:1" d="M51.2 35.398c3.5 0 6.402-2.898 6.402-6.398 0-3.5-2.801-6.398-6.403-6.398A6.38 6.38 0 0 0 44.801 29c0 3.5 2.898 6.398 6.398 6.398Zm0 0"/><path style="stroke:none;fill-rule:nonzero;fill:#81c7f9;fill-opacity:1" d="M9.602 13.5H.3c-.2 0-.403-.2-.403-.398V3c0-.2.204-.398.403-.398h9.3c.2 0 .399-.204.399-.403V.4c0-.2.2-.399.398-.399.102 0 .204 0 .301.102L18.301 7.8c.097.097.097.398 0 .5L10.699 16c-.097.102-.398.102-.5 0-.097-.102-.097-.2-.097-.3v-1.802C10 13.7 9.8 13.5 9.602 13.5Zm0 0"/><path style="stroke:none;fill-rule:nonzero;fill:#fed955;fill-opacity:1" d="M9.602 34.5H.3c-.2 0-.403-.2-.403-.398V23.898c0-.199.204-.398.403-.398h9.3c.2 0 .399-.2.399-.398V21.3c0-.2.2-.403.398-.403.102 0 .204 0 .301.102l7.602 7.7c.097.1.097.402 0 .5l-7.602 7.698c-.097.102-.398.102-.5 0-.097-.097-.097-.199-.097-.296V34.8c-.102-.2-.301-.301-.5-.301Zm0 0"/><path style="stroke:none;fill-rule:nonzero;fill:#344653;fill-opacity:1" d="M9.602 55.398H.3c-.2 0-.403-.199-.403-.398V44.8c0-.198.204-.402.403-.402h9.3c.2 0 .399-.199.399-.398v-1.8c0-.2.2-.4.398-.4.102 0 .204 0 .301.098l7.602 7.704c.097.097.097.398 0 .5L10.699 57.8c-.097.097-.398.097-.5 0-.097-.102-.097-.2-.097-.301v-1.8c-.102-.098-.301-.302-.5-.302Zm0 0"/></svg>