<?xml version="1.0" encoding="UTF-8"?>
<svg xmlns="http://www.w3.org/2000/svg" xmlns:xlink="http://www.w3.org/1999/xlink" width="80pt" height="80pt" viewBox="0 0 80 80" version="1.1">
<g id="surface1">
<path style=" stroke:none;fill-rule:nonzero;fill:rgb(50.588235%,78.039216%,97.647059%);fill-opacity:1;" d="M 68.300781 39.199219 L 46.101562 39.199219 L 35 57.601562 L 46.101562 76 L 68.300781 76 L 79.398438 57.601562 Z M 68.300781 39.199219 "/>
<path style=" stroke:none;fill-rule:nonzero;fill:rgb(89.803922%,37.647059%,41.176471%);fill-opacity:1;" d="M 33.300781 19.601562 L 11.101562 19.601562 L 0 38 L 11.101562 56.398438 L 33.300781 56.398438 L 44.398438 38 Z M 33.300781 19.601562 "/>
<path style=" stroke:none;fill-rule:nonzero;fill:rgb(99.607843%,85.098039%,33.333333%);fill-opacity:1;" d="M 68.898438 0 L 46.699219 0 L 35.601562 18.398438 L 46.699219 36.800781 L 68.898438 36.800781 L 80 18.398438 Z M 68.898438 0 "/>
<path style=" stroke:none;fill-rule:nonzero;fill:rgb(17.254902%,25.490196%,32.941176%);fill-opacity:1;" d="M 19.5 48 L 24.800781 48 L 24.800781 45.300781 C 25 45.199219 25.199219 45.101562 25.398438 45 L 27.300781 46.898438 L 31.101562 43.101562 L 29.199219 41.199219 C 29.300781 41 29.398438 40.800781 29.5 40.601562 L 32.199219 40.601562 L 32.199219 35.300781 L 29.5 35.300781 C 29.398438 35.101562 29.300781 34.898438 29.199219 34.699219 L 31.101562 32.800781 L 27.300781 29 L 25.398438 30.898438 C 25.199219 30.800781 25 30.699219 24.800781 30.601562 L 24.800781 28 L 19.5 28 L 19.5 30.699219 C 19.300781 30.800781 19.101562 30.898438 18.898438 31 L 17 29.101562 L 13.199219 32.898438 L 15.101562 34.800781 C 15 35 14.898438 35.199219 14.800781 35.398438 L 12.101562 35.398438 L 12.101562 40.699219 L 14.800781 40.699219 C 14.898438 40.898438 15 41.101562 15.101562 41.300781 L 13.199219 43.199219 L 17 47 L 18.898438 45.101562 C 19.101562 45.199219 19.300781 45.300781 19.5 45.398438 Z M 19.5 48 "/>
<path style=" stroke:none;fill-rule:nonzero;fill:rgb(95.686275%,38.431373%,45.882353%);fill-opacity:1;" d="M 22.199219 41.398438 C 24.101562 41.398438 25.601562 39.898438 25.601562 38 C 25.601562 36.101562 24.101562 34.601562 22.199219 34.601562 C 20.300781 34.601562 18.800781 36.101562 18.800781 38 C 18.800781 39.898438 20.300781 41.398438 22.199219 41.398438 Z M 22.199219 41.398438 "/>
<path style=" stroke:none;fill-rule:nonzero;fill:rgb(17.254902%,25.490196%,32.941176%);fill-opacity:1;" d="M 55.199219 28.398438 L 60.5 28.398438 L 60.5 25.699219 C 60.699219 25.601562 60.898438 25.5 61.101562 25.398438 L 63 27.300781 L 66.800781 23.5 L 64.898438 21.601562 C 65 21.398438 65.101562 21.199219 65.199219 21 L 67.898438 21 L 67.898438 15.699219 L 65.199219 15.699219 C 65.101562 15.5 65 15.300781 64.898438 15.101562 L 66.800781 13.199219 L 63 9.398438 L 61.101562 11.300781 C 60.898438 11.199219 60.699219 11.101562 60.5 11 L 60.5 8.300781 L 55.199219 8.300781 L 55.199219 11 C 55 11.101562 54.800781 11.199219 54.601562 11.300781 L 52.699219 9.398438 L 48.898438 13.199219 L 50.800781 15.101562 C 50.699219 15.300781 50.601562 15.5 50.5 15.699219 L 47.800781 15.699219 L 47.800781 21 L 50.5 21 C 50.601562 21.199219 50.699219 21.398438 50.800781 21.601562 L 48.898438 23.5 L 52.699219 27.300781 L 54.601562 25.398438 C 54.800781 25.5 55 25.601562 55.199219 25.699219 Z M 55.199219 28.398438 "/>
<path style=" stroke:none;fill-rule:nonzero;fill:rgb(99.607843%,85.098039%,33.333333%);fill-opacity:1;" d="M 57.800781 21.800781 C 59.699219 21.800781 61.199219 20.300781 61.199219 18.398438 C 61.199219 16.5 59.699219 15 57.800781 15 C 55.898438 15 54.398438 16.5 54.398438 18.398438 C 54.5 20.300781 56 21.800781 57.800781 21.800781 Z M 57.800781 21.800781 "/>
<path style=" stroke:none;fill-rule:nonzero;fill:rgb(17.254902%,25.490196%,32.941176%);fill-opacity:1;" d="M 54.5 67.601562 L 59.800781 67.601562 L 59.800781 64.898438 C 60 64.800781 60.199219 64.699219 60.398438 64.601562 L 62.300781 66.5 L 66.101562 62.699219 L 64.199219 60.800781 C 64.300781 60.601562 64.398438 60.398438 64.5 60.199219 L 67.199219 60.199219 L 67.199219 55 L 64.5 55 C 64.398438 54.800781 64.300781 54.601562 64.199219 54.398438 L 66.101562 52.5 L 62.300781 48.699219 L 60.398438 50.601562 C 60.199219 50.5 60 50.398438 59.800781 50.300781 L 59.800781 47.601562 L 54.5 47.601562 L 54.5 50.300781 C 54.300781 50.398438 54.101562 50.5 53.898438 50.601562 L 52 48.699219 L 48.199219 52.5 L 50.101562 54.398438 C 50 54.601562 49.898438 54.800781 49.800781 55 L 47.101562 55 L 47.101562 60.300781 L 49.800781 60.300781 C 49.898438 60.5 50 60.699219 50.101562 60.898438 L 48.199219 62.800781 L 52 66.601562 L 53.898438 64.699219 C 54.101562 64.800781 54.300781 64.898438 54.5 65 Z M 54.5 67.601562 "/>
<path style=" stroke:none;fill-rule:nonzero;fill:rgb(50.588235%,78.039216%,97.647059%);fill-opacity:1;" d="M 57.199219 61 C 59.101562 61 60.601562 59.5 60.601562 57.601562 C 60.601562 55.699219 59.101562 54.199219 57.199219 54.199219 C 55.300781 54.199219 53.800781 55.699219 53.800781 57.601562 C 53.800781 59.5 55.300781 61 57.199219 61 Z M 57.199219 61 "/>
</g>
</svg>
