<svg xmlns="http://www.w3.org/2000/svg" width="80pt" height="80pt" viewBox="0 0 80 80"><path style="stroke:none;fill-rule:nonzero;fill:#81c7f9;fill-opacity:1" d="M68.3 39.2H46.103L35 57.601 46.102 76H68.3l11.097-18.398Zm0 0"/><path style="stroke:none;fill-rule:nonzero;fill:#e56069;fill-opacity:1" d="M33.3 19.602H11.103L0 38l11.102 18.398H33.3L44.398 38Zm0 0"/><path style="stroke:none;fill-rule:nonzero;fill:#fed955;fill-opacity:1" d="M68.898 0H46.7L35.602 18.398l11.097 18.403h22.2L80 18.398Zm0 0"/><path style="stroke:none;fill-rule:nonzero;fill:#2c4154;fill-opacity:1" d="M19.5 48h5.3v-2.7c.2-.1.4-.198.598-.3l1.903 1.898 3.8-3.796-1.902-1.903c.102-.199.2-.398.301-.597h2.7V35.3h-2.7c-.102-.2-.2-.403-.3-.602l1.902-1.898L27.3 29l-1.903 1.898c-.199-.097-.398-.199-.597-.296V28H19.5v2.7l-.602.3L17 29.102l-3.8 3.796 1.902 1.903c-.102.199-.204.398-.301.597h-2.7V40.7h2.7c.097.2.199.403.3.602L13.2 43.199 17 47l1.898-1.898c.204.097.403.199.602.296Zm0 0"/><path style="stroke:none;fill-rule:nonzero;fill:#f46275;fill-opacity:1" d="M22.2 41.398c1.902 0 3.402-1.5 3.402-3.398 0-1.898-1.5-3.398-3.403-3.398A3.371 3.371 0 0 0 18.801 38c0 1.898 1.5 3.398 3.398 3.398Zm0 0"/><path style="stroke:none;fill-rule:nonzero;fill:#2c4154;fill-opacity:1" d="M55.2 28.398h5.3V25.7c.2-.097.398-.199.602-.3L63 27.3l3.8-3.801-1.902-1.898c.102-.204.204-.403.301-.602h2.7v-5.3h-2.7c-.097-.2-.199-.4-.3-.598l1.902-1.903L63 9.4 61.102 11.3c-.204-.102-.403-.2-.602-.301V8.3h-5.3V11c-.2.102-.4.2-.598.3l-1.903-1.902-3.8 3.801 1.902 1.903c-.102.199-.2.398-.301.597h-2.7V21h2.7c.102.2.2.398.3.602L48.899 23.5l3.801 3.8 1.903-1.902c.199.102.398.204.597.301Zm0 0"/><path style="stroke:none;fill-rule:nonzero;fill:#fed955;fill-opacity:1" d="M57.8 21.8c1.9 0 3.4-1.5 3.4-3.402C61.2 16.5 59.7 15 57.8 15a3.372 3.372 0 0 0-3.402 3.398c.102 1.903 1.602 3.403 3.403 3.403Zm0 0"/><path style="stroke:none;fill-rule:nonzero;fill:#2c4154;fill-opacity:1" d="M54.5 67.602h5.3v-2.704c.2-.097.4-.199.598-.296l1.903 1.898 3.8-3.8-1.902-1.9c.102-.198.2-.402.301-.6h2.7V55h-2.7c-.102-.2-.2-.398-.3-.602l1.902-1.898-3.801-3.8-1.903 1.902c-.199-.102-.398-.204-.597-.301v-2.7H54.5v2.7c-.2.097-.398.199-.602.3L52 48.7 48.2 52.5l1.902 1.898c-.102.204-.204.403-.301.602h-2.7v5.3h2.7c.097.2.199.4.3.598L48.2 62.801 52 66.6l1.898-1.902c.204.102.403.2.602.301Zm0 0"/><path style="stroke:none;fill-rule:nonzero;fill:#81c7f9;fill-opacity:1" d="M57.2 61c1.902 0 3.402-1.5 3.402-3.398 0-1.903-1.5-3.403-3.403-3.403a3.372 3.372 0 0 0-3.398 3.403C53.8 59.5 55.3 61 57.199 61Zm0 0"/></svg>