<svg xmlns="http://www.w3.org/2000/svg" width="80pt" height="80pt" viewBox="0 0 80 80"><path style="fill:none;stroke-width:3.5977;stroke-linecap:butt;stroke-linejoin:miter;stroke:#2c4154;stroke-opacity:1;stroke-miterlimit:4" d="M-248.398 383.8h7.5" transform="translate(265 -357)"/><path style="stroke:none;fill-rule:nonzero;fill:#e56069;fill-opacity:1" d="M1 7h56v44H1Zm0 0"/><path style="fill:none;stroke-width:3.5977;stroke-linecap:butt;stroke-linejoin:miter;stroke:#2c4154;stroke-opacity:1;stroke-miterlimit:4" d="M-246.2 388.3h7.598" transform="translate(265 -357)"/><path style="fill-rule:nonzero;fill:#81c7f9;fill-opacity:1;stroke-width:2;stroke-linecap:butt;stroke-linejoin:miter;stroke:#2c4154;stroke-opacity:1;stroke-miterlimit:4" d="M-255 373h58v46h-58Zm0 0" transform="translate(265 -357)"/><path style="fill:none;stroke-width:2;stroke-linecap:butt;stroke-linejoin:miter;stroke:#2c4154;stroke-opacity:1;stroke-miterlimit:4" d="m-246.102 393.398 8-6-8-6M-232 393h12" transform="translate(265 -357)"/><path style="fill-rule:nonzero;fill:#fed955;fill-opacity:1;stroke-width:2.3985;stroke-linecap:butt;stroke-linejoin:miter;stroke:#2c4154;stroke-opacity:1;stroke-miterlimit:4" d="m-198.2 401.102-.3-.602h-21l-.3.602-9.802 16.296-.398.602.398.602 9.801 16.296.301.602h21l.3-.602 9.802-16.296.398-.602-.398-.602Zm0 0" transform="translate(265 -357)"/><path style="stroke:none;fill-rule:nonzero;fill:#2c4154;fill-opacity:1" d="M53.602 69.898H58.3V67.5c.199-.102.398-.102.5-.2L60.5 69l3.3-3.3-1.698-1.7c.097-.2.199-.398.199-.5h2.398v-4.7h-2.398c-.102-.198-.102-.402-.2-.5l1.7-1.698L60.5 53.3 58.8 55c-.198-.102-.402-.2-.5-.2v-2.402h-4.698v2.403c-.204.097-.403.097-.5.199l-1.704-1.7-3.296 3.302L49.8 58.3c-.102.199-.2.398-.2.5H47.2V63.5h2.403c.097.2.097.398.199.5l-1.7 1.7 3.297 3.3 1.704-1.7c.199.098.398.2.5.2Zm0 0"/><path style="stroke:none;fill-rule:nonzero;fill:#fed955;fill-opacity:1" d="M55.898 64.102c1.704 0 3-1.301 3-3 0-1.704-1.296-3-3-3-1.699 0-3 1.296-3 3 0 1.597 1.403 3 3 3Zm0 0"/></svg>