<svg width="188" height="130" viewBox="0 0 188 130" fill="none" xmlns="http://www.w3.org/2000/svg">
<path fill-rule="evenodd" clip-rule="evenodd" d="M88.3616 64.0305C87.5122 65.2197 86.493 66.2389 85.3888 67.0883L86.1532 70.9955L80.2075 73.6286L77.8292 70.4858C76.4702 70.7407 75.0262 70.7407 73.5823 70.5708L71.3739 73.8834L65.2583 71.5051L65.8529 67.5979C64.6637 66.7486 63.6445 65.7293 62.7951 64.6251L58.8879 65.3895L56.2548 59.4438L59.3975 57.0655C59.1427 55.7065 59.1427 54.2626 59.3126 52.8186L56 50.6102L58.3783 44.4946L62.2855 45.0892C63.1348 43.9001 64.1541 42.8808 65.2583 42.0314L64.4939 38.1242L70.4396 35.4911L72.8178 38.6339C74.1768 38.3791 75.6208 38.3791 77.0648 38.5489L79.2732 35.2363L85.3888 37.6146L84.7942 41.5218C85.9833 42.3712 87.0026 43.3904 87.852 44.4946L91.7592 43.7302L94.3922 49.6759L91.2495 52.0542C91.5043 53.4132 91.5043 54.8571 91.3345 56.3011L94.6471 58.5095L92.2688 64.6251L88.3616 64.0305ZM81.7364 57.3204C83.0954 53.668 81.3117 49.6759 77.7443 48.2319C74.0919 46.8729 70.0998 48.6566 68.6558 52.224C67.2968 55.8764 69.0805 59.8685 72.648 61.3125C76.3003 62.7564 80.2924 60.9727 81.7364 57.3204Z" fill="#4BB4FF"/>
<path fill-rule="evenodd" clip-rule="evenodd" d="M127.662 81.8674C126.941 82.8774 126.075 83.7431 125.137 84.4645L125.786 87.7829L120.737 90.0192L118.717 87.3501C117.562 87.5665 116.336 87.5665 115.11 87.4222L113.234 90.2356L108.04 88.2157L108.545 84.8973C107.535 84.1759 106.669 83.3102 105.948 82.3724L102.63 83.0217L100.393 77.9719L103.062 75.952C102.846 74.7978 102.846 73.5714 102.99 72.345L100.177 70.4694L102.197 65.2753L105.515 65.7803C106.236 64.7704 107.102 63.9047 108.04 63.1833L107.391 59.8649L112.44 57.6285L114.46 60.2977C115.615 60.0813 116.841 60.0813 118.067 60.2256L119.943 57.4121L125.137 59.432L124.632 62.7504C125.642 63.4718 126.508 64.3375 127.229 65.2753L130.548 64.6261L132.784 69.6758L130.115 71.6958C130.331 72.85 130.331 74.0764 130.187 75.3027L133 77.1784L130.98 82.3724L127.662 81.8674ZM122.035 76.1684C123.189 73.0664 121.674 69.6758 118.645 68.4495C115.543 67.2952 112.152 68.8102 110.926 71.84C109.771 74.942 111.286 78.3326 114.316 79.559C117.418 80.7853 120.809 79.2704 122.035 76.1684Z" fill="#E56069"/>
<path fill-rule="evenodd" clip-rule="evenodd" d="M93.9301 97.2523C93.3484 98.0668 92.6502 98.7649 91.8939 99.3467L92.4175 102.023L88.3451 103.826L86.7162 101.674C85.7853 101.848 84.7963 101.848 83.8073 101.732L82.2947 104.001L78.106 102.372L78.5132 99.6958C77.6987 99.114 77.0006 98.4159 76.4188 97.6596L73.7427 98.1832L71.9392 94.1108L74.0917 92.4818C73.9172 91.551 73.9172 90.562 74.0336 89.5729L71.7646 88.0603L73.3936 83.8716L76.0698 84.2788C76.6515 83.4643 77.3496 82.7662 78.106 82.1844L77.5824 79.5083L81.6548 77.7048L83.2837 79.8574C84.2145 79.6828 85.2036 79.6828 86.1926 79.7992L87.7052 77.5303L91.8939 79.1592L91.4867 81.8354C92.3012 82.4172 92.9993 83.1153 93.5811 83.8716L96.2572 83.348L98.0607 87.4204L95.9082 89.0493C96.0827 89.9802 96.0827 90.9692 95.9663 91.9582L98.2352 93.4708L96.6063 97.6596L93.9301 97.2523ZM89.3923 92.6563C90.3231 90.1547 89.1014 87.4204 86.658 86.4314C84.1564 85.5005 81.422 86.7223 80.433 89.1657C79.5022 91.6673 80.7239 94.4016 83.1674 95.3907C85.669 96.3797 88.4033 95.1579 89.3923 92.6563Z" fill="#FED955"/>
<path fill-rule="evenodd" clip-rule="evenodd" d="M120.283 44.3109C119.701 45.1254 119.003 45.8235 118.246 46.4053L118.77 49.0814L114.698 50.8849L113.069 48.7324C112.138 48.9069 111.149 48.9069 110.16 48.7906L108.647 51.0595L104.458 49.4305L104.866 46.7544C104.051 46.1726 103.353 45.4745 102.771 44.7182L100.095 45.2417L98.2917 41.1693L100.444 39.5404C100.27 38.6096 100.27 37.6205 100.386 36.6315L98.1172 35.1189L99.7461 30.9302L102.422 31.3374C103.004 30.5229 103.702 29.8248 104.458 29.243L103.935 26.5669L108.007 24.7634L109.636 26.916C110.567 26.7414 111.556 26.7414 112.545 26.8578L114.058 24.5889L118.246 26.2178L117.839 28.894C118.654 29.4757 119.352 30.1739 119.934 30.9302L122.61 30.4066L124.413 34.479L122.261 36.1079C122.435 37.0388 122.435 38.0278 122.319 39.0168L124.588 40.5294L122.959 44.7182L120.283 44.3109ZM115.745 39.7149C116.676 37.2133 115.454 34.479 113.011 33.49C110.509 32.5591 107.775 33.7809 106.786 36.2243C105.855 38.7259 107.076 41.4602 109.52 42.4492C112.022 43.4383 114.756 42.2165 115.745 39.7149Z" fill="#2C4154"/>
</svg>
