<svg width="188" height="130" viewBox="0 0 188 130" fill="none" xmlns="http://www.w3.org/2000/svg">
<path d="M106.837 27H96.6631V37.1744H106.837V27Z" fill="#009DDB"/>
<path d="M106.837 39.7793H96.6631V49.9537H106.837V39.7793Z" fill="#009DDB"/>
<path d="M106.837 52.5674H96.6631V62.7418H106.837V52.5674Z" fill="#009DDB"/>
<path d="M94.4801 39.7793H84.3057V49.9537H94.4801V39.7793Z" fill="#009DDB"/>
<path d="M94.4801 52.5674H84.3057V62.7418H94.4801V52.5674Z" fill="#009DDB"/>
<path d="M82.1295 39.7793H71.9551V49.9537H82.1295V39.7793Z" fill="#009DDB"/>
<path d="M82.1295 52.5674H71.9551V62.7418H82.1295V52.5674Z" fill="#009DDB"/>
<path d="M69.9303 52.5674H59.7559V62.7418H69.9303V52.5674Z" fill="#009DDB"/>
<path d="M119.189 52.5674H109.015V62.7418H119.189V52.5674Z" fill="#009DDB"/>
<path d="M87.26 99.0002C49.795 99.0002 54.1555 66.0147 54.1555 66.0147C54.1555 66.0147 106.147 66.0147 116.695 66.0147C127.243 66.0147 130.73 62.6709 130.73 62.6709C130.73 62.6709 124.773 54.9666 131.746 45.6738C139.594 50.1773 139.3 56.8649 139.3 56.8649C139.3 56.8649 147.29 54.2518 152.23 58.7552C149.482 67.7541 137.274 67.1743 137.274 67.1743C137.274 67.1743 125.94 99.0002 87.26 99.0002Z" fill="#009DDB"/>
</svg>
