<svg width="188" height="130" viewBox="0 0 188 130" fill="none" xmlns="http://www.w3.org/2000/svg">
<mask id="mask0_6603_1793" style="mask-type:alpha" maskUnits="userSpaceOnUse" x="53" y="28" width="83" height="74">
<path d="M134.223 61.153L117.332 31.7764C116.04 29.4844 113.63 28.0477 110.999 28H77.2106C74.5793 28.0464 72.1696 29.4834 70.878 31.7764L53.9804 61.0759C52.6732 63.3506 52.6732 66.1486 53.9804 68.4233L70.8716 97.9669C72.1499 100.292 74.5533 101.776 77.2042 101.878H110.993C113.644 101.787 116.052 100.309 117.332 97.9861L134.223 68.6096C135.54 66.2983 135.54 63.4643 134.223 61.153Z" fill="white"/>
</mask>
<g mask="url(#mask0_6603_1793)">
<path d="M134.223 61.153L117.332 31.7764C116.04 29.4844 113.63 28.0477 110.999 28H77.2106C74.5793 28.0464 72.1696 29.4834 70.878 31.7764L53.9804 61.0759C52.6732 63.3506 52.6732 66.1486 53.9804 68.4233L70.8716 97.9669C72.1499 100.292 74.5533 101.776 77.2042 101.878H110.993C113.644 101.787 116.052 100.309 117.332 97.9861L134.223 68.6096C135.54 66.2983 135.54 63.4643 134.223 61.153Z" fill="#4285F4"/>
<path opacity="0.07" d="M113.106 55.2112L110.777 57.7512L111.302 72.8438L109.095 76.0428L107.815 74.7632H108.992V69.5297L103.343 63.8804L99.0731 66.0146L84.9108 51.8203L78.0906 55.4735L77.2461 62.5496L79.6389 75.4989L83.1066 78.8962L81.5263 81.1419L102.158 102.259H110.777C113.418 102.168 116.278 100.438 117.554 98.124L131.613 73.7167L113.106 55.2112Z" fill="black"/>
<path d="M81.5264 81.1416L84.9108 77.7571L79.8373 72.6836V56.8936L84.9108 51.82L81.5264 48.4355L74.751 55.2109V74.3662L81.5264 81.1416Z" fill="white"/>
<path d="M86.7664 67.1871C88.0914 67.1871 89.1656 66.1129 89.1656 64.7879C89.1656 63.4628 88.0914 62.3887 86.7664 62.3887C85.4414 62.3887 84.3672 63.4628 84.3672 64.7879C84.3672 66.1129 85.4414 67.1871 86.7664 67.1871Z" fill="white"/>
<path d="M93.9451 67.1871C95.2702 67.1871 96.3443 66.1129 96.3443 64.7879C96.3443 63.4628 95.2702 62.3887 93.9451 62.3887C92.6201 62.3887 91.5459 63.4628 91.5459 64.7879C91.5459 66.1129 92.6201 67.1871 93.9451 67.1871Z" fill="white"/>
<path d="M101.124 67.1871C102.449 67.1871 103.523 66.1129 103.523 64.7879C103.523 63.4628 102.449 62.3887 101.124 62.3887C99.7988 62.3887 98.7246 63.4628 98.7246 64.7879C98.7246 66.1129 99.7988 67.1871 101.124 67.1871Z" fill="white"/>
<path d="M106.331 48.4355L102.946 51.82L108.02 56.8936V72.6836L102.946 77.7571L106.331 81.1416L113.106 74.3662V55.2109L106.331 48.4355Z" fill="white"/>
</g>
</svg>
