<svg width="169" height="45" viewBox="0 0 169 45" fill="none" xmlns="http://www.w3.org/2000/svg">
<path d="M31.2787 29.24C30.3987 29.24 29.5787 29.0933 28.8187 28.8C28.072 28.5067 27.4187 28.0733 26.8587 27.5C26.312 26.9267 25.8853 26.22 25.5787 25.38C25.272 24.54 25.1187 23.58 25.1187 22.5C25.1187 21.4333 25.2787 20.48 25.5987 19.64C25.9187 18.7867 26.352 18.0667 26.8987 17.48C27.4587 16.8933 28.112 16.4467 28.8587 16.14C29.6187 15.8333 30.432 15.68 31.2987 15.68C32.232 15.68 33.0187 15.8533 33.6587 16.2C34.312 16.5333 34.8453 16.9133 35.2587 17.34L34.0187 18.84C33.6853 18.52 33.312 18.2533 32.8987 18.04C32.4987 17.8133 31.992 17.7 31.3787 17.7C30.792 17.7 30.2587 17.8133 29.7787 18.04C29.312 18.2533 28.9053 18.5667 28.5587 18.98C28.2253 19.38 27.9653 19.8733 27.7787 20.46C27.592 21.0467 27.4987 21.7067 27.4987 22.44C27.4987 23.9333 27.832 25.1067 28.4987 25.96C29.1787 26.8 30.1787 27.22 31.4987 27.22C31.872 27.22 32.2253 27.1733 32.5587 27.08C32.892 26.9733 33.1653 26.8267 33.3787 26.64V23.82H30.8987V21.92H35.4587V27.68C35.0187 28.12 34.432 28.4933 33.6987 28.8C32.9787 29.0933 32.172 29.24 31.2787 29.24ZM38.8573 29V15.92H46.7373V17.88H41.1773V21.22H45.8773V23.18H41.1773V27.04H46.9373V29H38.8573ZM52.759 29V17.88H48.979V15.92H58.859V17.88H55.079V29H52.759ZM69.8609 29.24C68.9809 29.24 68.1275 29.0733 67.3009 28.74C66.4875 28.4067 65.7675 27.9333 65.1409 27.32L66.5009 25.74C66.9675 26.18 67.5009 26.54 68.1009 26.82C68.7009 27.0867 69.3009 27.22 69.9009 27.22C70.6475 27.22 71.2142 27.0667 71.6009 26.76C71.9875 26.4533 72.1809 26.0467 72.1809 25.54C72.1809 25.2733 72.1275 25.0467 72.0209 24.86C71.9275 24.6733 71.7875 24.5133 71.6009 24.38C71.4275 24.2333 71.2142 24.1 70.9609 23.98C70.7209 23.86 70.4542 23.74 70.1609 23.62L68.3609 22.84C68.0409 22.7067 67.7209 22.54 67.4009 22.34C67.0942 22.14 66.8142 21.9 66.5609 21.62C66.3075 21.34 66.1009 21.0133 65.9409 20.64C65.7942 20.2667 65.7209 19.84 65.7209 19.36C65.7209 18.84 65.8275 18.36 66.0409 17.92C66.2675 17.4667 66.5742 17.0733 66.9609 16.74C67.3475 16.4067 67.8075 16.1467 68.3409 15.96C68.8875 15.7733 69.4809 15.68 70.1209 15.68C70.8809 15.68 71.6142 15.8333 72.3209 16.14C73.0275 16.4333 73.6342 16.8333 74.1409 17.34L72.9609 18.82C72.5342 18.4733 72.0942 18.2 71.6409 18C71.1875 17.8 70.6809 17.7 70.1209 17.7C69.4942 17.7 68.9942 17.84 68.6209 18.12C68.2475 18.3867 68.0609 18.76 68.0609 19.24C68.0609 19.4933 68.1142 19.7133 68.2209 19.9C68.3409 20.0733 68.4942 20.2333 68.6809 20.38C68.8809 20.5133 69.1075 20.64 69.3609 20.76C69.6142 20.8667 69.8742 20.9733 70.1409 21.08L71.9209 21.82C72.3075 21.98 72.6609 22.1667 72.9809 22.38C73.3009 22.5933 73.5742 22.84 73.8009 23.12C74.0409 23.4 74.2275 23.7267 74.3609 24.1C74.4942 24.46 74.5609 24.88 74.5609 25.36C74.5609 25.8933 74.4542 26.3933 74.2409 26.86C74.0275 27.3267 73.7142 27.74 73.3009 28.1C72.9009 28.4467 72.4075 28.7267 71.8209 28.94C71.2475 29.14 70.5942 29.24 69.8609 29.24ZM79.6887 29V17.88H75.9087V15.92H85.7887V17.88H82.0087V29H79.6887ZM90.3459 22.04L89.8859 23.64H93.2259L92.7659 22.04C92.5525 21.3467 92.3459 20.6333 92.1459 19.9C91.9592 19.1667 91.7725 18.44 91.5859 17.72H91.5059C91.3192 18.4533 91.1325 19.1867 90.9459 19.92C90.7592 20.64 90.5592 21.3467 90.3459 22.04ZM85.9659 29L90.2259 15.92H92.9459L97.2059 29H94.7659L93.7459 25.46H89.3459L88.3259 29H85.9659ZM99.3182 29V15.92H103.738C104.418 15.92 105.052 15.9867 105.638 16.12C106.225 16.2533 106.732 16.4733 107.158 16.78C107.585 17.0733 107.918 17.4667 108.158 17.96C108.412 18.4533 108.538 19.0667 108.538 19.8C108.538 20.8 108.298 21.6067 107.818 22.22C107.352 22.8333 106.725 23.2733 105.938 23.54L109.058 29H106.458L103.638 23.88H101.638V29H99.3182ZM101.638 22.04H103.498C104.392 22.04 105.072 21.8533 105.538 21.48C106.018 21.1067 106.258 20.5467 106.258 19.8C106.258 19.04 106.018 18.5133 105.538 18.22C105.072 17.9267 104.392 17.78 103.498 17.78H101.638V22.04ZM113.982 29V17.88H110.202V15.92H120.082V17.88H116.302V29H113.982ZM122.76 29V15.92H130.64V17.88H125.08V21.22H129.78V23.18H125.08V27.04H130.84V29H122.76ZM134.021 29V15.92H137.521C139.521 15.92 141.081 16.46 142.201 17.54C143.321 18.62 143.881 20.24 143.881 22.4C143.881 23.48 143.735 24.4333 143.441 25.26C143.161 26.0867 142.748 26.78 142.201 27.34C141.668 27.8867 141.015 28.3 140.241 28.58C139.481 28.86 138.615 29 137.641 29H134.021ZM136.341 27.12H137.361C138.695 27.12 139.715 26.74 140.421 25.98C141.141 25.2067 141.501 24.0133 141.501 22.4C141.501 20.8 141.141 19.6333 140.421 18.9C139.701 18.1667 138.681 17.8 137.361 17.8H136.341V27.12Z" fill="#E56069"/>
<rect x="1" y="1" width="167" height="43" rx="1" stroke="#E56069" stroke-width="2"/>
</svg>
