<svg width="255" height="57" viewBox="0 0 255 70" fill="none" xmlns="http://www.w3.org/2000/svg">
<path d="M83.22 42.36C81.9 42.36 80.62 42.11 79.38 41.61C78.16 41.11 77.08 40.4 76.14 39.48L78.18 37.11C78.88 37.77 79.68 38.31 80.58 38.73C81.48 39.13 82.38 39.33 83.28 39.33C84.4 39.33 85.25 39.1 85.83 38.64C86.41 38.18 86.7 37.57 86.7 36.81C86.7 36.41 86.62 36.07 86.46 35.79C86.32 35.51 86.11 35.27 85.83 35.07C85.57 34.85 85.25 34.65 84.87 34.47C84.51 34.29 84.11 34.11 83.67 33.93L80.97 32.76C80.49 32.56 80.01 32.31 79.53 32.01C79.07 31.71 78.65 31.35 78.27 30.93C77.89 30.51 77.58 30.02 77.34 29.46C77.12 28.9 77.01 28.26 77.01 27.54C77.01 26.76 77.17 26.04 77.49 25.38C77.83 24.7 78.29 24.11 78.87 23.61C79.45 23.11 80.14 22.72 80.94 22.44C81.76 22.16 82.65 22.02 83.61 22.02C84.75 22.02 85.85 22.25 86.91 22.71C87.97 23.15 88.88 23.75 89.64 24.51L87.87 26.73C87.23 26.21 86.57 25.8 85.89 25.5C85.21 25.2 84.45 25.05 83.61 25.05C82.67 25.05 81.92 25.26 81.36 25.68C80.8 26.08 80.52 26.64 80.52 27.36C80.52 27.74 80.6 28.07 80.76 28.35C80.94 28.61 81.17 28.85 81.45 29.07C81.75 29.27 82.09 29.46 82.47 29.64C82.85 29.8 83.24 29.96 83.64 30.12L86.31 31.23C86.89 31.47 87.42 31.75 87.9 32.07C88.38 32.39 88.79 32.76 89.13 33.18C89.49 33.6 89.77 34.09 89.97 34.65C90.17 35.19 90.27 35.82 90.27 36.54C90.27 37.34 90.11 38.09 89.79 38.79C89.47 39.49 89 40.11 88.38 40.65C87.78 41.17 87.04 41.59 86.16 41.91C85.3 42.21 84.32 42.36 83.22 42.36ZM99.8377 42.36C98.8177 42.36 97.8677 42.19 96.9877 41.85C96.1077 41.49 95.3377 40.98 94.6777 40.32C94.0177 39.66 93.4977 38.86 93.1177 37.92C92.7577 36.96 92.5777 35.87 92.5777 34.65C92.5777 33.45 92.7677 32.37 93.1477 31.41C93.5277 30.45 94.0277 29.64 94.6477 28.98C95.2877 28.32 96.0177 27.81 96.8377 27.45C97.6577 27.09 98.4977 26.91 99.3577 26.91C100.358 26.91 101.238 27.08 101.998 27.42C102.758 27.76 103.388 28.24 103.888 28.86C104.408 29.48 104.798 30.22 105.058 31.08C105.318 31.94 105.448 32.88 105.448 33.9C105.448 34.24 105.428 34.56 105.388 34.86C105.368 35.16 105.338 35.4 105.298 35.58H95.9377C96.0977 36.9 96.5577 37.92 97.3177 38.64C98.0977 39.34 99.0877 39.69 100.288 39.69C100.928 39.69 101.518 39.6 102.058 39.42C102.618 39.22 103.168 38.95 103.708 38.61L104.878 40.77C104.178 41.23 103.398 41.61 102.538 41.91C101.678 42.21 100.778 42.36 99.8377 42.36ZM95.9077 33.24H102.448C102.448 32.1 102.198 31.21 101.698 30.57C101.218 29.91 100.468 29.58 99.4477 29.58C98.5677 29.58 97.7977 29.89 97.1377 30.51C96.4777 31.13 96.0677 32.04 95.9077 33.24ZM108.743 42V27.27H111.593L111.833 29.88H111.953C112.473 28.92 113.103 28.19 113.843 27.69C114.583 27.17 115.343 26.91 116.123 26.91C116.823 26.91 117.383 27.01 117.803 27.21L117.203 30.21C116.943 30.13 116.703 30.07 116.483 30.03C116.263 29.99 115.993 29.97 115.673 29.97C115.093 29.97 114.483 30.2 113.843 30.66C113.203 31.1 112.653 31.88 112.193 33V42H108.743ZM123.703 42L118.573 27.27H122.083L124.423 34.92C124.623 35.64 124.823 36.37 125.023 37.11C125.243 37.85 125.453 38.6 125.653 39.36H125.773C125.993 38.6 126.203 37.85 126.403 37.11C126.603 36.37 126.813 35.64 127.033 34.92L129.373 27.27H132.703L127.693 42H123.703ZM135.256 42V27.27H138.706V42H135.256ZM136.996 24.69C136.376 24.69 135.866 24.51 135.466 24.15C135.066 23.79 134.866 23.32 134.866 22.74C134.866 22.16 135.066 21.69 135.466 21.33C135.866 20.95 136.376 20.76 136.996 20.76C137.616 20.76 138.126 20.95 138.526 21.33C138.926 21.69 139.126 22.16 139.126 22.74C139.126 23.32 138.926 23.79 138.526 24.15C138.126 24.51 137.616 24.69 136.996 24.69ZM149.258 42.36C148.258 42.36 147.318 42.19 146.438 41.85C145.578 41.51 144.828 41.01 144.188 40.35C143.548 39.69 143.048 38.88 142.688 37.92C142.328 36.96 142.148 35.87 142.148 34.65C142.148 33.43 142.348 32.34 142.748 31.38C143.148 30.42 143.688 29.61 144.368 28.95C145.048 28.29 145.828 27.79 146.708 27.45C147.608 27.09 148.548 26.91 149.528 26.91C150.488 26.91 151.308 27.07 151.988 27.39C152.688 27.71 153.308 28.1 153.848 28.56L152.168 30.81C151.768 30.47 151.368 30.21 150.968 30.03C150.588 29.83 150.168 29.73 149.708 29.73C148.508 29.73 147.538 30.18 146.798 31.08C146.058 31.96 145.688 33.15 145.688 34.65C145.688 36.13 146.048 37.32 146.768 38.22C147.508 39.1 148.458 39.54 149.618 39.54C150.198 39.54 150.738 39.42 151.238 39.18C151.758 38.92 152.228 38.62 152.648 38.28L154.058 40.56C153.358 41.16 152.588 41.61 151.748 41.91C150.928 42.21 150.098 42.36 149.258 42.36ZM162.533 42.36C161.513 42.36 160.563 42.19 159.683 41.85C158.803 41.49 158.033 40.98 157.373 40.32C156.713 39.66 156.193 38.86 155.813 37.92C155.453 36.96 155.273 35.87 155.273 34.65C155.273 33.45 155.463 32.37 155.843 31.41C156.223 30.45 156.723 29.64 157.343 28.98C157.983 28.32 158.713 27.81 159.533 27.45C160.353 27.09 161.193 26.91 162.053 26.91C163.053 26.91 163.933 27.08 164.693 27.42C165.453 27.76 166.083 28.24 166.583 28.86C167.103 29.48 167.493 30.22 167.753 31.08C168.013 31.94 168.143 32.88 168.143 33.9C168.143 34.24 168.123 34.56 168.083 34.86C168.063 35.16 168.033 35.4 167.993 35.58H158.633C158.793 36.9 159.253 37.92 160.013 38.64C160.793 39.34 161.783 39.69 162.983 39.69C163.623 39.69 164.213 39.6 164.753 39.42C165.313 39.22 165.863 38.95 166.403 38.61L167.573 40.77C166.873 41.23 166.093 41.61 165.233 41.91C164.373 42.21 163.473 42.36 162.533 42.36ZM158.603 33.24H165.143C165.143 32.1 164.893 31.21 164.393 30.57C163.913 29.91 163.163 29.58 162.143 29.58C161.263 29.58 160.493 29.89 159.833 30.51C159.173 31.13 158.763 32.04 158.603 33.24ZM175.548 42.36C174.528 42.36 173.518 42.17 172.518 41.79C171.538 41.39 170.688 40.9 169.968 40.32L171.588 38.1C172.248 38.62 172.898 39.03 173.538 39.33C174.198 39.61 174.908 39.75 175.668 39.75C176.468 39.75 177.058 39.59 177.438 39.27C177.818 38.93 178.008 38.5 178.008 37.98C178.008 37.68 177.918 37.42 177.738 37.2C177.558 36.96 177.318 36.75 177.018 36.57C176.718 36.39 176.378 36.23 175.998 36.09C175.618 35.93 175.238 35.77 174.858 35.61C174.378 35.43 173.888 35.22 173.388 34.98C172.888 34.74 172.438 34.45 172.038 34.11C171.658 33.77 171.338 33.38 171.078 32.94C170.838 32.48 170.718 31.94 170.718 31.32C170.718 30.02 171.198 28.96 172.158 28.14C173.118 27.32 174.428 26.91 176.088 26.91C177.108 26.91 178.028 27.09 178.848 27.45C179.668 27.81 180.378 28.22 180.978 28.68L179.388 30.78C178.868 30.4 178.338 30.1 177.798 29.88C177.278 29.64 176.728 29.52 176.148 29.52C175.408 29.52 174.858 29.68 174.498 30C174.158 30.3 173.988 30.68 173.988 31.14C173.988 31.44 174.068 31.7 174.228 31.92C174.408 32.12 174.638 32.3 174.918 32.46C175.198 32.62 175.518 32.77 175.878 32.91C176.258 33.05 176.648 33.19 177.048 33.33C177.548 33.51 178.048 33.72 178.548 33.96C179.048 34.18 179.498 34.46 179.898 34.8C180.318 35.14 180.648 35.56 180.888 36.06C181.148 36.54 181.278 37.12 181.278 37.8C181.278 38.44 181.148 39.04 180.888 39.6C180.648 40.14 180.288 40.62 179.808 41.04C179.328 41.44 178.728 41.76 178.008 42C177.288 42.24 176.468 42.36 175.548 42.36ZM195.524 42.36C193.664 42.36 192.184 41.69 191.084 40.35C190.004 38.99 189.464 37.09 189.464 34.65C189.464 33.45 189.634 32.37 189.974 31.41C190.334 30.45 190.804 29.64 191.384 28.98C191.964 28.32 192.624 27.81 193.364 27.45C194.124 27.09 194.904 26.91 195.704 26.91C196.544 26.91 197.254 27.06 197.834 27.36C198.414 27.64 198.994 28.03 199.574 28.53L199.454 26.16V20.82H202.904V42H200.054L199.814 40.41H199.694C199.154 40.95 198.524 41.41 197.804 41.79C197.084 42.17 196.324 42.36 195.524 42.36ZM196.364 39.51C197.464 39.51 198.494 38.96 199.454 37.86V30.99C198.934 30.53 198.424 30.21 197.924 30.03C197.444 29.85 196.954 29.76 196.454 29.76C195.494 29.76 194.684 30.18 194.024 31.02C193.364 31.86 193.034 33.06 193.034 34.62C193.034 36.22 193.314 37.44 193.874 38.28C194.454 39.1 195.284 39.51 196.364 39.51ZM213.327 42.36C212.407 42.36 211.527 42.19 210.687 41.85C209.847 41.51 209.097 41.01 208.437 40.35C207.797 39.69 207.287 38.88 206.907 37.92C206.527 36.96 206.337 35.87 206.337 34.65C206.337 33.43 206.527 32.34 206.907 31.38C207.287 30.42 207.797 29.61 208.437 28.95C209.097 28.29 209.847 27.79 210.687 27.45C211.527 27.09 212.407 26.91 213.327 26.91C214.247 26.91 215.127 27.09 215.967 27.45C216.827 27.79 217.577 28.29 218.217 28.95C218.857 29.61 219.367 30.42 219.747 31.38C220.147 32.34 220.347 33.43 220.347 34.65C220.347 35.87 220.147 36.96 219.747 37.92C219.367 38.88 218.857 39.69 218.217 40.35C217.577 41.01 216.827 41.51 215.967 41.85C215.127 42.19 214.247 42.36 213.327 42.36ZM213.327 39.54C214.407 39.54 215.257 39.1 215.877 38.22C216.497 37.32 216.807 36.13 216.807 34.65C216.807 33.15 216.497 31.96 215.877 31.08C215.257 30.18 214.407 29.73 213.327 29.73C212.247 29.73 211.397 30.18 210.777 31.08C210.177 31.96 209.877 33.15 209.877 34.65C209.877 36.13 210.177 37.32 210.777 38.22C211.397 39.1 212.247 39.54 213.327 39.54ZM229.912 42.36C228.912 42.36 227.972 42.19 227.092 41.85C226.232 41.51 225.482 41.01 224.842 40.35C224.202 39.69 223.702 38.88 223.342 37.92C222.982 36.96 222.802 35.87 222.802 34.65C222.802 33.43 223.002 32.34 223.402 31.38C223.802 30.42 224.342 29.61 225.022 28.95C225.702 28.29 226.482 27.79 227.362 27.45C228.262 27.09 229.202 26.91 230.182 26.91C231.142 26.91 231.962 27.07 232.642 27.39C233.342 27.71 233.962 28.1 234.502 28.56L232.822 30.81C232.422 30.47 232.022 30.21 231.622 30.03C231.242 29.83 230.822 29.73 230.362 29.73C229.162 29.73 228.192 30.18 227.452 31.08C226.712 31.96 226.342 33.15 226.342 34.65C226.342 36.13 226.702 37.32 227.422 38.22C228.162 39.1 229.112 39.54 230.272 39.54C230.852 39.54 231.392 39.42 231.892 39.18C232.412 38.92 232.882 38.62 233.302 38.28L234.712 40.56C234.012 41.16 233.242 41.61 232.402 41.91C231.582 42.21 230.752 42.36 229.912 42.36ZM241.73 42.36C240.71 42.36 239.7 42.17 238.7 41.79C237.72 41.39 236.87 40.9 236.15 40.32L237.77 38.1C238.43 38.62 239.08 39.03 239.72 39.33C240.38 39.61 241.09 39.75 241.85 39.75C242.65 39.75 243.24 39.59 243.62 39.27C244 38.93 244.19 38.5 244.19 37.98C244.19 37.68 244.1 37.42 243.92 37.2C243.74 36.96 243.5 36.75 243.2 36.57C242.9 36.39 242.56 36.23 242.18 36.09C241.8 35.93 241.42 35.77 241.04 35.61C240.56 35.43 240.07 35.22 239.57 34.98C239.07 34.74 238.62 34.45 238.22 34.11C237.84 33.77 237.52 33.38 237.26 32.94C237.02 32.48 236.9 31.94 236.9 31.32C236.9 30.02 237.38 28.96 238.34 28.14C239.3 27.32 240.61 26.91 242.27 26.91C243.29 26.91 244.21 27.09 245.03 27.45C245.85 27.81 246.56 28.22 247.16 28.68L245.57 30.78C245.05 30.4 244.52 30.1 243.98 29.88C243.46 29.64 242.91 29.52 242.33 29.52C241.59 29.52 241.04 29.68 240.68 30C240.34 30.3 240.17 30.68 240.17 31.14C240.17 31.44 240.25 31.7 240.41 31.92C240.59 32.12 240.82 32.3 241.1 32.46C241.38 32.62 241.7 32.77 242.06 32.91C242.44 33.05 242.83 33.19 243.23 33.33C243.73 33.51 244.23 33.72 244.73 33.96C245.23 34.18 245.68 34.46 246.08 34.8C246.5 35.14 246.83 35.56 247.07 36.06C247.33 36.54 247.46 37.12 247.46 37.8C247.46 38.44 247.33 39.04 247.07 39.6C246.83 40.14 246.47 40.62 245.99 41.04C245.51 41.44 244.91 41.76 244.19 42C243.47 42.24 242.65 42.36 241.73 42.36Z" fill="white"/>
<g clip-path="url(#clip0)">
<path d="M29.7056 32.2539C28.9027 29.0769 28.6845 25.8652 28.9895 22.7437C28.9887 22.7417 28.9887 22.7417 28.9887 22.7417C24.4712 17.4842 17.0128 15.2917 10.1208 17.8002C7.86777 18.6202 5.89345 19.8615 4.25087 21.4065C2.41615 23.1128 1.67795 25.8144 2.58973 28.3196C2.62347 28.4123 2.65849 28.5022 2.69754 28.5907C2.71716 28.6383 2.73678 28.686 2.75841 28.7329C2.79526 28.8153 2.83138 28.8958 2.8695 28.9755C6.37508 36.4957 14.8063 40.4339 22.8107 38.2942C21.7565 40.7229 21.5938 43.546 22.5716 46.2325C22.5951 46.297 22.6186 46.3615 22.6441 46.4253C22.6901 46.5454 22.7381 46.6649 22.7902 46.7829C22.8243 46.8641 22.8604 46.9445 22.8958 47.0229C22.9693 47.181 23.0474 47.3329 23.1315 47.4826C23.135 47.4859 23.1372 47.4919 23.1394 47.498C23.446 48.046 23.8262 48.533 24.2629 48.956L24.2637 48.958C25.9757 50.6172 28.5469 51.2539 30.9369 50.3841C34.0154 49.2636 35.7172 46.0332 35.0028 42.9176C34.9979 42.9103 34.9909 42.9037 34.986 42.8963C34.0374 41.7124 33.178 40.4412 32.4227 39.0865C32.422 39.0845 32.42 39.0852 32.4193 39.0832C32.4143 39.0759 32.4114 39.0678 32.4064 39.0605C32.394 39.0514 32.3815 39.0422 32.3691 39.033C32.3663 39.0317 32.3628 39.0285 32.3601 39.0272C32.3632 39.0169 32.3683 39.0059 32.3707 38.9936C31.67 37.7263 31.0583 36.3901 30.5477 34.9874C30.4428 34.6993 30.342 34.4096 30.2479 34.1197C30.045 33.4997 29.8637 32.8764 29.7056 32.2539ZM23.21 31.8359C22.9289 31.9907 22.6329 32.1235 22.3228 32.2364C19.2121 33.3686 15.7915 31.9455 14.3595 29.0386C14.2561 28.8298 14.1633 28.6125 14.0819 28.3888L14.076 28.3726C13.6951 27.3199 14.1016 26.1312 15.0318 25.5233C15.0551 25.5057 15.0798 25.4922 15.1038 25.4766C15.5765 25.1904 16.0968 24.9599 16.6604 24.7982C19.7547 23.9025 23.0932 25.4946 24.35 28.4653C24.3594 28.4847 24.3667 28.5049 24.3753 28.5223C24.8839 29.7568 24.378 31.1985 23.21 31.8359Z" fill="#81C7F9"/>
<path d="M32.2784 19.2521C34.5024 18.4426 35.6485 15.9818 34.8382 13.7557C34.028 11.5295 31.5683 10.3811 29.3443 11.1906C27.1203 12 25.9742 14.4609 26.7845 16.687C27.5947 18.9131 30.0544 20.0615 32.2784 19.2521Z" fill="#FED955"/>
<path d="M40.171 30.9187C39.2166 28.2214 38.2053 26.1131 37.2284 24.5629C37.2056 24.5256 37.1849 24.4875 37.1642 24.4493L37.1582 24.4515C33.9419 19.4301 31.1181 20.4488 31.885 26.3708L31.8789 26.373C31.8837 26.3987 31.8905 26.4236 31.896 26.4513C32.1402 28.275 32.7218 30.5557 33.734 33.2616C34.6999 35.9843 35.7204 38.1052 36.7036 39.66C36.7164 39.6827 36.7272 39.7062 36.7408 39.7309L36.7468 39.7287C39.966 44.7582 42.7839 43.7234 42.02 37.8094L42.0261 37.8072C42.0195 37.764 42.0108 37.7215 42.0022 37.679C41.7541 35.8635 41.1737 33.5984 40.171 30.9187Z" fill="white"/>
<path d="M43.3016 29.0896C43.4159 29.3722 43.5248 29.6589 43.6297 29.9471C44.1402 31.3498 44.5305 32.7666 44.8083 34.1878C44.8181 34.1957 44.829 34.2008 44.838 34.2067C44.8367 34.2094 44.8362 34.2142 44.8349 34.2169C44.8313 34.2319 44.8276 34.247 44.824 34.262C44.8249 34.2708 44.8278 34.2789 44.8287 34.2876C44.8295 34.2897 44.8274 34.2904 44.8282 34.2924C45.1204 35.8157 45.2791 37.3418 45.3135 38.8585C45.3145 38.8673 45.3134 38.8768 45.3143 38.8856C46.7696 41.7315 50.1498 43.1122 53.2283 41.9917C55.6183 41.1219 57.1787 38.9814 57.4237 36.6099L57.4229 36.6079C57.4855 36.0031 57.4638 35.3856 57.3464 34.7687C57.3442 34.7627 57.342 34.7567 57.3425 34.7519C57.3108 34.5831 57.273 34.4166 57.2276 34.2482C57.2043 34.1654 57.1803 34.0806 57.1542 33.9965C57.1183 33.8726 57.0783 33.7503 57.0363 33.6286C57.0148 33.5634 56.9914 33.4989 56.9679 33.4344C55.9901 30.7479 54.0508 28.6898 51.6821 27.507C59.1892 24.0009 63.1165 15.5646 60.968 7.55043C60.946 7.46487 60.9219 7.38004 60.8972 7.2932C60.8836 7.24336 60.868 7.19426 60.8524 7.14516C60.8254 7.05227 60.7944 6.96085 60.7607 6.86814C59.8489 4.36303 57.5468 2.76794 55.0446 2.6402C52.7932 2.51248 50.4829 2.83069 48.2299 3.65073C41.3378 6.15922 37.0337 12.6329 36.9525 19.5642C36.9525 19.5642 36.9525 19.5642 36.9533 19.5663C39.1933 21.7614 41.0907 24.362 42.5177 27.3117C42.7967 27.8903 43.0585 28.4843 43.3016 29.0896ZM44.2023 21.0269C44.1977 21.0081 44.1904 20.9879 44.1851 20.967C43.2383 17.8835 44.7723 14.5179 47.7184 13.2151C48.2541 12.9767 48.8009 12.8188 49.347 12.7342C49.3754 12.7307 49.403 12.7252 49.4321 12.7237C50.5355 12.5914 51.6109 13.2408 51.9958 14.2921L52.0017 14.3082C52.0831 14.5319 52.1517 14.758 52.2068 14.9844C52.9783 18.1317 51.2727 21.4206 48.162 22.5528C47.8519 22.6657 47.5398 22.7541 47.2249 22.8162C45.9205 23.0788 44.6062 22.2995 44.2023 21.0269Z" fill="#E56069"/>
</g>
<path d="M68 42C69.1046 42 70 41.1046 70 40C70 38.8954 69.1046 38 68 38C66.8954 38 66 38.8954 66 40C66 41.1046 66.8954 42 68 42Z" fill="white"/>
<defs>
<clipPath id="clip0">
<rect width="62" height="38" fill="white" transform="translate(0 21.2051) rotate(-20)"/>
</clipPath>
</defs>
</svg>
