<svg viewBox="0 0 72 57" fill="none" xmlns="http://www.w3.org/2000/svg">
<g clip-path="url(#clip0)">
<path d="M29.7056 32.2539C28.9027 29.0769 28.6845 25.8652 28.9895 22.7437C28.9887 22.7417 28.9887 22.7417 28.9887 22.7417C24.4712 17.4842 17.0128 15.2917 10.1208 17.8002C7.86777 18.6202 5.89345 19.8615 4.25087 21.4065C2.41615 23.1128 1.67795 25.8144 2.58973 28.3196C2.62347 28.4123 2.65849 28.5022 2.69754 28.5907C2.71716 28.6383 2.73678 28.686 2.75841 28.7329C2.79526 28.8153 2.83138 28.8958 2.8695 28.9755C6.37508 36.4957 14.8063 40.4339 22.8107 38.2942C21.7565 40.7229 21.5938 43.546 22.5716 46.2325C22.5951 46.297 22.6186 46.3615 22.6441 46.4253C22.6901 46.5454 22.7381 46.6649 22.7902 46.7829C22.8243 46.8641 22.8604 46.9445 22.8958 47.0229C22.9693 47.181 23.0474 47.3329 23.1315 47.4826C23.135 47.4859 23.1372 47.4919 23.1394 47.498C23.446 48.046 23.8262 48.533 24.2629 48.956L24.2637 48.958C25.9757 50.6172 28.5469 51.2539 30.9369 50.3841C34.0154 49.2636 35.7172 46.0332 35.0028 42.9176C34.9979 42.9103 34.9909 42.9037 34.986 42.8963C34.0374 41.7124 33.178 40.4412 32.4227 39.0865C32.422 39.0845 32.42 39.0852 32.4193 39.0832C32.4143 39.0759 32.4114 39.0678 32.4064 39.0605C32.394 39.0514 32.3815 39.0422 32.3691 39.033C32.3663 39.0317 32.3628 39.0285 32.3601 39.0272C32.3632 39.0169 32.3683 39.0059 32.3707 38.9936C31.67 37.7263 31.0583 36.3901 30.5477 34.9874C30.4428 34.6993 30.342 34.4096 30.2479 34.1197C30.045 33.4997 29.8637 32.8764 29.7056 32.2539ZM23.21 31.8359C22.9289 31.9907 22.6329 32.1235 22.3228 32.2364C19.2121 33.3686 15.7915 31.9455 14.3595 29.0386C14.2561 28.8298 14.1633 28.6125 14.0819 28.3888L14.076 28.3726C13.6951 27.3199 14.1016 26.1312 15.0318 25.5233C15.0551 25.5057 15.0798 25.4922 15.1038 25.4766C15.5765 25.1904 16.0968 24.9599 16.6604 24.7982C19.7547 23.9025 23.0932 25.4946 24.35 28.4653C24.3594 28.4847 24.3667 28.5049 24.3753 28.5223C24.8839 29.7568 24.378 31.1985 23.21 31.8359Z" fill="#81C7F9"/>
<path d="M32.2784 19.2521C34.5024 18.4426 35.6485 15.9818 34.8382 13.7557C34.028 11.5295 31.5683 10.3811 29.3443 11.1906C27.1203 12 25.9742 14.4609 26.7845 16.687C27.5947 18.9131 30.0544 20.0615 32.2784 19.2521Z" fill="#FED955"/>
<path d="M40.171 30.9187C39.2166 28.2214 38.2053 26.1131 37.2284 24.5629C37.2056 24.5256 37.1849 24.4875 37.1642 24.4493L37.1582 24.4515C33.9419 19.4301 31.1181 20.4488 31.885 26.3708L31.8789 26.373C31.8837 26.3987 31.8905 26.4236 31.896 26.4513C32.1402 28.275 32.7218 30.5557 33.734 33.2616C34.6999 35.9843 35.7204 38.1052 36.7036 39.66C36.7164 39.6827 36.7272 39.7062 36.7408 39.7309L36.7468 39.7287C39.966 44.7582 42.7839 43.7234 42.02 37.8094L42.0261 37.8072C42.0195 37.764 42.0108 37.7215 42.0022 37.679C41.7541 35.8635 41.1737 33.5984 40.171 30.9187Z" fill="white"/>
<path d="M43.3016 29.0896C43.4159 29.3722 43.5248 29.6589 43.6297 29.9471C44.1402 31.3498 44.5305 32.7666 44.8083 34.1878C44.8181 34.1957 44.829 34.2008 44.838 34.2067C44.8367 34.2094 44.8362 34.2142 44.8349 34.2169C44.8313 34.2319 44.8276 34.247 44.824 34.262C44.8249 34.2708 44.8278 34.2789 44.8287 34.2876C44.8295 34.2897 44.8274 34.2904 44.8282 34.2924C45.1204 35.8157 45.2791 37.3418 45.3135 38.8585C45.3145 38.8673 45.3134 38.8768 45.3143 38.8856C46.7696 41.7315 50.1498 43.1122 53.2283 41.9917C55.6183 41.1219 57.1787 38.9814 57.4237 36.6099L57.4229 36.6079C57.4855 36.0031 57.4638 35.3856 57.3464 34.7687C57.3442 34.7627 57.342 34.7567 57.3425 34.7519C57.3108 34.5831 57.273 34.4166 57.2276 34.2482C57.2043 34.1654 57.1803 34.0806 57.1542 33.9965C57.1183 33.8726 57.0783 33.7503 57.0363 33.6286C57.0148 33.5634 56.9914 33.4989 56.9679 33.4344C55.9901 30.7479 54.0508 28.6898 51.6821 27.507C59.1892 24.0009 63.1165 15.5646 60.968 7.55043C60.946 7.46487 60.9219 7.38004 60.8972 7.2932C60.8836 7.24336 60.868 7.19426 60.8524 7.14516C60.8254 7.05227 60.7944 6.96085 60.7607 6.86814C59.8489 4.36303 57.5468 2.76794 55.0446 2.6402C52.7932 2.51248 50.4829 2.83069 48.2299 3.65073C41.3378 6.15922 37.0337 12.6329 36.9525 19.5642C36.9525 19.5642 36.9525 19.5642 36.9533 19.5663C39.1933 21.7614 41.0907 24.362 42.5177 27.3117C42.7967 27.8903 43.0585 28.4843 43.3016 29.0896ZM44.2023 21.0269C44.1977 21.0081 44.1904 20.9879 44.1851 20.967C43.2383 17.8835 44.7723 14.5179 47.7184 13.2151C48.2541 12.9767 48.8009 12.8188 49.347 12.7342C49.3754 12.7307 49.403 12.7252 49.4321 12.7237C50.5355 12.5914 51.6109 13.2408 51.9958 14.2921L52.0017 14.3082C52.0831 14.5319 52.1517 14.758 52.2068 14.9844C52.9783 18.1317 51.2727 21.4206 48.162 22.5528C47.8519 22.6657 47.5398 22.7541 47.2249 22.8162C45.9205 23.0788 44.6062 22.2995 44.2023 21.0269Z" fill="#E56069"/>
</g>
<defs>
<clipPath id="clip0">
<rect width="62" height="38" fill="white" transform="translate(0 21.2051) rotate(-20)"/>
</clipPath>
</defs>
</svg>
