<svg width="25" height="25" viewBox="0 0 24 24" fill="none" xmlns="http://www.w3.org/2000/svg">
<path d="M19.4593 16.6085L16.816 13.9751C17.2966 13.0175 17.617 11.9002 17.617 10.783C17.617 7.03242 14.5732 4 10.8085 4C7.0438 4 4 7.03242 4 10.783C4 14.5337 7.0438 17.5661 10.8085 17.5661C11.9299 17.5661 13.0513 17.2469 14.0125 16.7681L16.6558 19.4015C17.4568 20.1995 18.6583 20.1995 19.4593 19.4015C20.1802 18.6035 20.1802 17.4065 19.4593 16.6085ZM10.8085 15.9701C7.92491 15.9701 5.602 13.6559 5.602 10.783C5.602 7.91022 7.92491 5.59601 10.8085 5.59601C13.6921 5.59601 16.015 7.91022 16.015 10.783C16.015 13.6559 13.6921 15.9701 10.8085 15.9701Z" fill="white"/>
</svg>
