<svg width="16" height="16" viewBox="0 0 16 16" fill="none" xmlns="http://www.w3.org/2000/svg">
<path d="M15.4593 12.6085L12.816 9.97506C13.2966 9.01746 13.617 7.90025 13.617 6.78304C13.617 3.03242 10.5732 0 6.80851 0C3.0438 0 0 3.03242 0 6.78304C0 10.5337 3.0438 13.5661 6.80851 13.5661C7.92991 13.5661 9.05131 13.2469 10.0125 12.7681L12.6558 15.4015C13.4568 16.1995 14.6583 16.1995 15.4593 15.4015C16.1802 14.6035 16.1802 13.4065 15.4593 12.6085ZM6.80851 11.9701C3.92491 11.9701 1.602 9.65586 1.602 6.78304C1.602 3.91022 3.92491 1.59601 6.80851 1.59601C9.69212 1.59601 12.015 3.91022 12.015 6.78304C12.015 9.65586 9.69212 11.9701 6.80851 11.9701Z" fill="white"/>
</svg>
